<svg width="95" height="42" viewBox="0 0 95 42" fill="none" xmlns="http://www.w3.org/2000/svg">
<path d="M21.4827 6.64H24.8427C24.7893 7.68 24.696 9.05333 24.5627 10.76C24.4293 12.4667 24.176 14.4 23.8027 16.56C23.456 18.6933 22.9093 20.92 22.1627 23.24C21.416 25.56 20.416 27.8533 19.1627 30.12C17.9093 32.3867 16.3093 34.5333 14.3627 36.56C12.4427 38.5867 10.096 40.3467 7.32267 41.84C7.08267 41.4667 6.736 41.0667 6.28267 40.64C5.82933 40.2133 5.36267 39.84 4.88267 39.52C7.62933 38.1067 9.936 36.4533 11.8027 34.56C13.6693 32.6667 15.2027 30.64 16.4027 28.48C17.6027 26.32 18.536 24.1467 19.2027 21.96C19.8693 19.7467 20.3627 17.64 20.6827 15.64C21.0027 13.64 21.2027 11.8667 21.2827 10.32C21.3893 8.74667 21.456 7.52 21.4827 6.64ZM24.6827 7.44C24.7093 7.89333 24.7627 8.68 24.8427 9.8C24.9493 10.8933 25.136 12.2267 25.4027 13.8C25.6693 15.3733 26.056 17.08 26.5627 18.92C27.0693 20.76 27.7493 22.6533 28.6027 24.6C29.456 26.5467 30.5093 28.44 31.7627 30.28C33.016 32.12 34.5227 33.8267 36.2827 35.4C38.0427 36.9467 40.1093 38.2533 42.4827 39.32C42.0293 39.6667 41.5893 40.0667 41.1627 40.52C40.7627 41 40.4293 41.44 40.1627 41.84C37.7627 40.6933 35.6427 39.2933 33.8027 37.64C31.9893 35.96 30.4293 34.1467 29.1227 32.2C27.8427 30.2267 26.7627 28.2133 25.8827 26.16C25.0293 24.1067 24.336 22.1067 23.8027 20.16C23.2693 18.1867 22.8693 16.36 22.6027 14.68C22.336 12.9733 22.1493 11.52 22.0427 10.32C21.936 9.09333 21.8693 8.21333 21.8427 7.68L24.6827 7.44Z" fill="#FFF199"/>
<path d="M68.608 6.64H71.968C71.9147 7.68 71.8213 9.05333 71.688 10.76C71.5547 12.4667 71.3013 14.4 70.928 16.56C70.5813 18.6933 70.0347 20.92 69.288 23.24C68.5413 25.56 67.5413 27.8533 66.288 30.12C65.0347 32.3867 63.4347 34.5333 61.488 36.56C59.568 38.5867 57.2213 40.3467 54.448 41.84C54.208 41.4667 53.8613 41.0667 53.408 40.64C52.9547 40.2133 52.488 39.84 52.008 39.52C54.7547 38.1067 57.0613 36.4533 58.928 34.56C60.7947 32.6667 62.328 30.64 63.528 28.48C64.728 26.32 65.6613 24.1467 66.328 21.96C66.9947 19.7467 67.488 17.64 67.808 15.64C68.128 13.64 68.328 11.8667 68.408 10.32C68.5147 8.74667 68.5813 7.52 68.608 6.64ZM71.808 7.44C71.8347 7.89333 71.888 8.68 71.968 9.8C72.0747 10.8933 72.2613 12.2267 72.528 13.8C72.7947 15.3733 73.1813 17.08 73.688 18.92C74.1947 20.76 74.8747 22.6533 75.728 24.6C76.5813 26.5467 77.6347 28.44 78.888 30.28C80.1413 32.12 81.648 33.8267 83.408 35.4C85.168 36.9467 87.2347 38.2533 89.608 39.32C89.1547 39.6667 88.7147 40.0667 88.288 40.52C87.888 41 87.5547 41.44 87.288 41.84C84.888 40.6933 82.768 39.2933 80.928 37.64C79.1147 35.96 77.5547 34.1467 76.248 32.2C74.968 30.2267 73.888 28.2133 73.008 26.16C72.1547 24.1067 71.4613 22.1067 70.928 20.16C70.3947 18.1867 69.9947 16.36 69.728 14.68C69.4613 12.9733 69.2747 11.52 69.168 10.32C69.0613 9.09333 68.9947 8.21333 68.968 7.68L71.808 7.44Z" fill="#B8B5FF"/>
</svg>
